<svg width="18" height="18" viewBox="0 0 18 18" fill="none" xmlns="http://www.w3.org/2000/svg">
<path d="M8.93812 7.302V10.753H13.7301C13.2841 12.946 11.4171 14.206 8.93812 14.206C7.5505 14.1869 6.22618 13.6223 5.25166 12.6342C4.27714 11.6462 3.73078 10.3143 3.73078 8.9265C3.73078 7.53874 4.27714 6.20677 5.25166 5.21875C6.22618 4.23073 7.5505 3.66609 8.93812 3.647C10.1383 3.64556 11.3016 4.06207 12.2281 4.825L14.8281 2.225C13.7434 1.27077 12.4433 0.593977 11.0394 0.252709C9.63553 -0.0885598 8.16983 -0.084118 6.76806 0.265653C5.36629 0.615424 4.07032 1.30008 2.99135 2.26087C1.91238 3.22166 1.08264 4.42989 0.573314 5.78188C0.0639935 7.13387 -0.109693 8.58925 0.0671601 10.0231C0.244013 11.457 0.766124 12.8266 1.58869 14.0143C2.41125 15.202 3.50971 16.1724 4.7898 16.8422C6.06989 17.5121 7.49338 17.8613 8.93812 17.86C13.4051 17.86 17.4671 14.611 17.4671 8.926C17.4602 8.37864 17.3931 7.8337 17.2671 7.301L8.93812 7.302Z" fill="#1D1B19"/>
</svg>
