<svg width="16" height="13" viewBox="0 0 16 13" fill="none" xmlns="http://www.w3.org/2000/svg">
<path d="M15.198 0.005267C15.1299 -0.00175566 15.0612 -0.00175566 14.993 0.005267H0.993027C0.903299 0.00664956 0.814166 0.0201037 0.728027 0.045267L7.95303 7.24027L15.198 0.005267Z" fill="#FF5300"/>
<path d="M15.9395 0.700928L8.65951 7.95093C8.47215 8.13718 8.2187 8.24172 7.95451 8.24172C7.69033 8.24172 7.43687 8.13718 7.24951 7.95093L0.0345117 0.755928C0.0123314 0.837448 0.000571062 0.921451 -0.000488281 1.00593V11.0059C-0.000488281 11.2711 0.104869 11.5255 0.292405 11.713C0.479941 11.9006 0.734295 12.0059 0.999512 12.0059H14.9995C15.2647 12.0059 15.5191 11.9006 15.7066 11.713C15.8942 11.5255 15.9995 11.2711 15.9995 11.0059V1.00593C15.9955 0.901755 15.9753 0.798845 15.9395 0.700928V0.700928ZM1.68451 11.0059H0.989512V10.2909L4.62451 6.68593L5.32951 7.39093L1.68451 11.0059ZM14.9895 11.0059H14.2895L10.6445 7.39093L11.3495 6.68593L14.9845 10.2909L14.9895 11.0059Z" fill="#FF5300"/>
</svg>
