<svg width="13" height="16" viewBox="0 0 13 16" fill="none" xmlns="http://www.w3.org/2000/svg">
<path d="M4.07147 0.596122C4.50154 0.473657 4.96305 0.494003 5.37917 0.653772C5.79529 0.813541 6.14092 1.10309 6.35852 1.47423L6.43224 1.61254L7.08189 2.97797C7.27935 3.39241 7.34345 3.85253 7.26621 4.30111C7.18897 4.74968 6.97381 5.16691 6.64748 5.50091L6.51774 5.62343L5.49166 6.52661C5.30689 6.69183 5.44547 7.33138 6.11478 8.42484C6.71529 9.40877 7.20573 9.86825 7.44554 9.89331H7.4878L7.53989 9.88403L9.5547 9.30202C9.82549 9.22359 10.1145 9.22049 10.3871 9.29308C10.6597 9.36568 10.9043 9.5109 11.0919 9.71137L11.1823 9.81812L12.515 11.5632C12.7765 11.9051 12.9069 12.321 12.8848 12.7423C12.8626 13.1636 12.6892 13.5652 12.3931 13.881L12.2732 13.998L11.7395 14.4751C11.2612 14.9029 10.6628 15.192 10.0156 15.308C9.36829 15.424 8.69937 15.3621 8.08831 15.1295C6.18653 14.4054 4.4587 12.7513 2.88911 10.1838C1.31658 7.60985 0.662992 5.36631 0.954895 3.44487C1.04331 2.86394 1.2967 2.31648 1.68815 1.86065C2.07959 1.40482 2.59446 1.05765 3.17807 0.856027L3.36776 0.796621L4.07147 0.596122Z" fill="#FF5300"/>
</svg>
